<svg width="21" height="21" viewBox="0 0 21 21" fill="none" xmlns="http://www.w3.org/2000/svg">
<path d="M10.0712 17.5205C9.73417 17.5317 9.40275 17.6131 9.15031 17.7656L6.12101 19.5654C3.95362 20.8456 2.63561 19.8954 3.20598 17.4365L3.92863 14.3184C4.0426 13.7101 3.80185 12.886 3.38371 12.4678L0.861248 9.94531C-0.621658 8.46237 -0.140275 6.9672 1.9257 6.6123L5.15812 6.08008C5.70291 5.99122 6.34883 5.50968 6.58976 5.01562L8.37687 1.44043C8.84753 0.511478 9.45712 0.0315173 10.0712 0V17.5205Z" fill="#05162C"/>
<path d="M10.0713 0.00164827C10.7305 -0.0320818 11.3952 0.45185 11.9004 1.45575L13.6875 5.02997C13.9283 5.52427 14.5751 5.99303 15.1201 6.09442L18.3525 6.62665C20.4182 6.969 20.8998 8.46511 19.417 9.96063L16.8945 12.4821C16.4763 12.9003 16.2358 13.7243 16.375 14.32L17.0977 17.4382C17.668 19.8971 16.349 20.8609 14.1816 19.5681L11.1523 17.7682C10.8598 17.5915 10.4618 17.5102 10.0713 17.5231V0.00164827Z" fill="#05162C"/>
</svg>
